<?xml version="1.0" encoding="utf-8"?>
<!-- Generator: Adobe Illustrator 26.3.1, SVG Export Plug-In . SVG Version: 6.00 Build 0)  -->
<svg version="1.1" xmlns="http://www.w3.org/2000/svg" xmlns:xlink="http://www.w3.org/1999/xlink" x="0px" y="0px"
	 viewBox="0 0 1920 1080" style="enable-background:new 0 0 1920 1080;" xml:space="preserve">
<style type="text/css">
	.st0{fill:#18FFAD;}
</style>
<g id="圖層_17">
</g>
<g id="圖層_16">
</g>
<g id="圖層_15">
</g>
<g id="圖層_14">
</g>
<g id="圖層_13">
</g>
<g id="圖層_12">
</g>
<g id="圖層_11">
</g>
<g id="圖層_10">
</g>
<g id="圖層_9">
</g>
<g id="圖層_8">
</g>
<g id="圖層_7">
</g>
<g id="圖層_6">
</g>
<g id="圖層_5">
</g>
<g id="圖層_4">
</g>
<g id="圖層_3">
	<g>
		<path class="st0" d="M1444.44,549.35l-111.69,111.69l-37.24,37.23l-37.23,37.23l-37.23,37.24l-37.23,37.23l-37.23,37.23
			l-37.23,37.23l-37.24,37.23l-37.23,37.24l-37.23,37.23c-20.56,20.56-53.9,20.56-74.46,0l-37.24-37.23l-37.23-37.24L662.57,735.5
			l-37.23-37.23l-37.23-37.23l-37.23-37.23l-37.23-37.23l-37.23-37.23c-10.28-10.29-15.43-23.76-15.43-37.24
			c0-13.47,5.15-26.95,15.43-37.23l37.23,37.23l37.23,37.24l111.69,111.69l37.24,37.23l37.23,37.23l37.23,37.24l37.23,37.23
			l37.23,37.23l37.23,37.23l37.24,37.23l37.23,37.24l37.23-37.24l37.23-37.23l37.23-37.23l37.24-37.23l37.23-37.23l37.23-37.24
			l111.69-111.69l37.24-37.23l37.23-37.23l37.23-37.24l37.23-37.23C1465,495.44,1465,528.78,1444.44,549.35z"/>
		
			<rect x="934.1" y="820.87" transform="matrix(0.7071 -0.7071 0.7071 0.7071 -317.7578 927.2664)" class="st0" width="52.65" height="52.65"/>
		
			<rect x="1045.8" y="709.18" transform="matrix(0.7071 -0.7071 0.7071 0.7071 -206.0624 973.5312)" class="st0" width="52.65" height="52.65"/>
		
			<rect x="934.1" y="746.41" transform="matrix(0.7071 -0.7071 0.7071 0.7071 -265.104 905.4564)" class="st0" width="52.65" height="52.65"/>
		
			<rect x="934.1" y="671.95" transform="matrix(0.7071 -0.7071 0.7071 0.7071 -212.4504 883.6457)" class="st0" width="52.65" height="52.65"/>
		<path class="st0" d="M1318.72,450.1l-83.63,83.63c-7.75,7.75-20.31,7.75-28.06,0l-23.2-23.2l-37.23-37.23l-23.2-23.2
			c-7.75-7.75-7.75-20.31,0-28.06l23.2-23.2l37.23-37.23l23.2-23.2c7.75-7.75,20.31-7.75,28.06,0l60.43,60.43l23.2,23.2
			C1326.46,429.79,1326.46,442.35,1318.72,450.1z"/>
		
			<rect x="934.1" y="523.02" transform="matrix(0.7071 -0.7071 0.7071 0.7071 -107.143 840.0259)" class="st0" width="52.65" height="52.65"/>
		
			<rect x="822.41" y="709.18" transform="matrix(0.7071 -0.7071 0.7071 0.7071 -271.4921 815.5701)" class="st0" width="52.65" height="52.65"/>
		
			<rect x="1045.8" y="560.25" transform="matrix(0.7071 -0.7071 0.7071 0.7071 -100.7548 929.9122)" class="st0" width="52.65" height="52.65"/>
		
			<rect x="934.1" y="597.48" transform="matrix(0.7071 -0.7071 0.7071 0.7071 -159.7967 861.8358)" class="st0" width="52.65" height="52.65"/>
		
			<rect x="822.41" y="560.25" transform="matrix(0.7071 -0.7071 0.7071 0.7071 -166.1846 771.9509)" class="st0" width="52.65" height="52.65"/>
		<polygon class="st0" points="1072.12,175.45 960.43,287.15 848.73,175.45 885.96,138.22 923.2,100.99 960.43,63.75 997.66,100.99 
			1034.89,138.22 		"/>
		<polygon class="st0" points="1221.05,249.91 1183.82,287.15 1146.59,324.38 1109.36,361.61 1072.12,398.84 1034.89,436.07 
			997.66,473.3 960.43,510.54 923.2,473.3 885.96,436.07 848.73,398.84 811.5,361.61 774.27,324.38 737.04,287.15 699.81,249.91 
			737.04,212.68 774.27,175.45 885.96,287.15 923.2,324.38 960.43,361.61 997.66,324.38 1034.89,287.15 1146.59,175.45 
			1183.82,212.68 		"/>
		<path class="st0" d="M797.47,423.62c7.75,7.75,7.75,20.31,0,28.06l-23.2,23.2l-37.23,37.23l-23.2,23.2
			c-7.75,7.75-20.31,7.75-28.06,0l-23.2-23.2l-37.23-37.23l-23.2-23.2c-7.75-7.75-7.75-20.31,0-28.06l23.2-23.2l37.23-37.23
			l23.2-23.2c7.75-7.75,20.31-7.75,28.06,0l23.2,23.2l37.23,37.23L797.47,423.62z"/>
		
			<rect x="934.1" y="895.34" transform="matrix(0.7071 -0.7071 0.7071 0.7071 -370.4115 949.0763)" class="st0" width="52.65" height="52.65"/>
	</g>
</g>
<g id="圖層_2">
</g>
</svg>
