<svg width="20" height="20" viewBox="0 0 20 20" fill="none" xmlns="http://www.w3.org/2000/svg">
<path d="M18.2453 11.1117C18.1651 11.0313 18.0646 10.9743 17.9545 10.9468C17.8444 10.9193 17.7288 10.9222 17.6203 10.9554C16.4286 11.3157 15.1614 11.3459 13.9538 11.0428C12.7463 10.7397 11.6436 10.1147 10.7632 9.23436C9.88287 8.354 9.25785 7.2513 8.95477 6.04374C8.65168 4.83619 8.68189 3.56903 9.04217 2.37729C9.07561 2.26869 9.07881 2.15304 9.05143 2.04276C9.02406 1.93249 8.96713 1.83176 8.88679 1.75142C8.80645 1.67107 8.70572 1.61415 8.59544 1.58677C8.48517 1.5594 8.36951 1.5626 8.26092 1.59604C6.61329 2.10076 5.16681 3.11228 4.12733 4.48666C3.21828 5.69358 2.66378 7.13008 2.52613 8.63476C2.38848 10.1395 2.67314 11.6527 3.34812 13.0045C4.0231 14.3564 5.06166 15.4932 6.34712 16.2873C7.63258 17.0814 9.11402 17.5014 10.625 17.4999C12.3878 17.5054 14.1036 16.9323 15.5094 15.8687C16.8837 14.8292 17.8953 13.3827 18.4 11.7351C18.433 11.6269 18.4361 11.5118 18.4089 11.402C18.3816 11.2922 18.3251 11.1918 18.2453 11.1117ZM14.7578 14.8703C13.434 15.8673 11.7946 16.3527 10.1414 16.2369C8.48811 16.1211 6.93233 15.4121 5.76041 14.2403C4.58848 13.0684 3.87929 11.5127 3.7634 9.85947C3.6475 8.20624 4.1327 6.56679 5.12967 5.24291C5.77921 4.38515 6.61894 3.68982 7.5828 3.21166C7.52789 3.59699 7.50022 3.98572 7.49998 4.37494C7.50226 6.52913 8.35901 8.59443 9.88226 10.1177C11.4055 11.6409 13.4708 12.4977 15.625 12.4999C16.015 12.4998 16.4045 12.4721 16.7906 12.4171C16.312 13.3811 15.6161 14.2209 14.7578 14.8703Z" fill="black"/>
</svg>
